<svg xmlns="http://www.w3.org/2000/svg" viewBox="0 0 600 400">
  <!-- Terminal window background -->
  <rect width="600" height="400" fill="#1E1E1E" rx="3" ry="3"/>

  <!-- Terminal content area -->
  <rect x="10" y="10" width="580" height="380" fill="#2D2D2D" rx="2" ry="2"/>

  <!-- Screen title -->
  <text x="50" y="40" fill="#FFFFFF" font-family="monospace" font-size="20">Statistics</text>

  <!-- Tabs -->
  <rect x="30" y="55" width="100" height="25" fill="#2D2D2D" rx="2" ry="2" stroke="#444444" stroke-width="1"/>
  <text x="80" y="73" fill="#AAAAAA" font-family="monospace" font-size="14" text-anchor="middle">Summary</text>

  <rect x="135" y="55" width="100" height="25" fill="#3A3A3A" rx="2" ry="2"/>
  <text x="185" y="73" fill="#FFFFFF" font-family="monospace" font-size="14" text-anchor="middle">Go Program</text>

  <rect x="240" y="55" width="130" height="25" fill="#2D2D2D" rx="2" ry="2" stroke="#444444" stroke-width="1"/>
  <text x="305" y="73" fill="#AAAAAA" font-family="monospace" font-size="14" text-anchor="middle">Review Forecast</text>

  <!-- Deck stats boxes -->
  <rect x="30" y="90" width="265" height="100" fill="#383838" rx="3" ry="3"/>
  <text x="45" y="115" fill="#AAAAAA" font-family="monospace" font-size="14">Total Cards:</text>
  <text x="260" y="115" fill="#FFFFFF" font-family="monospace" font-size="14" text-anchor="end">42</text>

  <text x="45" y="140" fill="#AAAAAA" font-family="monospace" font-size="14">Mature Cards:</text>
  <text x="260" y="140" fill="#FFFFFF" font-family="monospace" font-size="14" text-anchor="end">28</text>

  <text x="45" y="165" fill="#AAAAAA" font-family="monospace" font-size="14">New Cards:</text>
  <text x="260" y="165" fill="#FFFFFF" font-family="monospace" font-size="14" text-anchor="end">14</text>

  <rect x="305" y="90" width="265" height="100" fill="#383838" rx="3" ry="3"/>
  <text x="320" y="115" fill="#AAAAAA" font-family="monospace" font-size="14">Success Rate:</text>
  <text x="535" y="115" fill="#FFFFFF" font-family="monospace" font-size="14" text-anchor="end">92%</text>

  <text x="320" y="140" fill="#AAAAAA" font-family="monospace" font-size="14">Avg. Interval:</text>
  <text x="535" y="140" fill="#FFFFFF" font-family="monospace" font-size="14" text-anchor="end">12.6 days</text>

  <text x="320" y="165" fill="#AAAAAA" font-family="monospace" font-size="14">Last Studied:</text>
  <text x="535" y="165" fill="#FFFFFF" font-family="monospace" font-size="14" text-anchor="end">Today</text>

  <!-- Ratings Distribution in two columns -->
  <rect x="30" y="200" width="540" height="140" fill="#383838" rx="3" ry="3"/>
  <text x="45" y="220" fill="#FFFFFF" font-family="monospace" font-size="14">Ratings Distribution</text>

  <!-- Column divider -->
  <line x1="300" y1="230" x2="300" y2="330" stroke="#444444" stroke-width="1"/>

  <!-- Left Column: Rating 1-3 -->
  <text x="45" y="245" fill="#AAAAAA" font-family="monospace" font-size="12">Blackout (1)</text>
  <rect x="150" y="235" width="25" height="15" fill="#8E44AD"/>
  <text x="185" y="247" fill="#FFFFFF" font-family="monospace" font-size="12">5%</text>

  <text x="45" y="275" fill="#AAAAAA" font-family="monospace" font-size="12">Wrong (2)</text>
  <rect x="150" y="265" width="40" height="15" fill="#E74C3C"/>
  <text x="200" y="277" fill="#FFFFFF" font-family="monospace" font-size="12">8%</text>

  <text x="45" y="305" fill="#AAAAAA" font-family="monospace" font-size="12">Hard (3)</text>
  <rect x="150" y="295" width="75" height="15" fill="#E67E22"/>
  <text x="235" y="307" fill="#FFFFFF" font-family="monospace" font-size="12">15%</text>

  <!-- Right Column: Rating 4-5 -->
  <text x="320" y="245" fill="#AAAAAA" font-family="monospace" font-size="12">Good (4)</text>
  <rect x="425" y="235" width="70" height="15" fill="#F1C40F"/>
  <text x="505" y="247" fill="#FFFFFF" font-family="monospace" font-size="12">32%</text>

  <text x="320" y="275" fill="#AAAAAA" font-family="monospace" font-size="12">Easy (5)</text>
  <rect x="425" y="265" width="80" height="15" fill="#2ECC71"/>
  <text x="515" y="277" fill="#FFFFFF" font-family="monospace" font-size="12">40%</text>

  <!-- Help text at bottom -->
  <text x="30" y="370" fill="#888888" font-family="monospace" font-size="12" dy="15">Tab: Switch View</text>
  <text x="170" y="370" fill="#888888" font-family="monospace" font-size="12" dy="15">b: Back to Main Menu</text>
  <text x="350" y="370" fill="#888888" font-family="monospace" font-size="12" dy="15">q: Quit</text>
</svg>
