<svg xmlns="http://www.w3.org/2000/svg" viewBox="0 0 600 400">
  <!-- Terminal window background -->
  <rect width="600" height="400" fill="#1E1E1E" rx="3" ry="3"/>

  <!-- Terminal content area -->
  <rect x="10" y="10" width="580" height="380" fill="#2D2D2D" rx="2" ry="2"/>

  <!-- Screen title -->
  <text x="50" y="40" fill="#FFFFFF" font-family="monospace" font-size="20">Statistics</text>

  <!-- Tabs -->
  <rect x="30" y="55" width="100" height="25" fill="#3A3A3A" rx="2" ry="2"/>
  <text x="80" y="73" fill="#FFFFFF" font-family="monospace" font-size="14" text-anchor="middle">Summary</text>

  <rect x="135" y="55" width="100" height="25" fill="#2D2D2D" rx="2" ry="2" stroke="#444444" stroke-width="1"/>
  <text x="185" y="73" fill="#AAAAAA" font-family="monospace" font-size="14" text-anchor="middle">Deck Review</text>

  <rect x="240" y="55" width="130" height="25" fill="#2D2D2D" rx="2" ry="2" stroke="#444444" stroke-width="1"/>
  <text x="305" y="73" fill="#AAAAAA" font-family="monospace" font-size="14" text-anchor="middle">Review Forecast</text>

  <!-- Overview stats boxes -->
  <rect x="30" y="90" width="265" height="100" fill="#383838" rx="3" ry="3"/>
  <text x="45" y="115" fill="#AAAAAA" font-family="monospace" font-size="14">Total Cards:</text>
  <text x="260" y="115" fill="#FFFFFF" font-family="monospace" font-size="14" text-anchor="end">266</text>

  <text x="45" y="140" fill="#AAAAAA" font-family="monospace" font-size="14">Cards Due Today:</text>
  <text x="260" y="140" fill="#FFFFFF" font-family="monospace" font-size="14" text-anchor="end">42</text>

  <text x="45" y="165" fill="#AAAAAA" font-family="monospace" font-size="14">Studied Today:</text>
  <text x="260" y="165" fill="#FFFFFF" font-family="monospace" font-size="14" text-anchor="end">27</text>

  <rect x="305" y="90" width="265" height="100" fill="#383838" rx="3" ry="3"/>
  <text x="320" y="115" fill="#AAAAAA" font-family="monospace" font-size="14">Retention Rate:</text>
  <text x="535" y="115" fill="#FFFFFF" font-family="monospace" font-size="14" text-anchor="end">87%</text>

  <text x="320" y="140" fill="#AAAAAA" font-family="monospace" font-size="14">Time Studied:</text>
  <text x="535" y="140" fill="#FFFFFF" font-family="monospace" font-size="14" text-anchor="end">1h 24m</text>

  <text x="320" y="165" fill="#AAAAAA" font-family="monospace" font-size="14">Average Per Card:</text>
  <text x="535" y="165" fill="#FFFFFF" font-family="monospace" font-size="14" text-anchor="end">12.4s</text>

  <!-- Activity graph -->
  <rect x="30" y="200" width="540" height="140" fill="#383838" rx="3" ry="3"/>
  <text x="45" y="220" fill="#FFFFFF" font-family="monospace" font-size="14">Cards Studied per Day</text>

  <!-- X and Y axis -->
  <line x1="45" y1="310" x2="540" y2="310" stroke="#666666" stroke-width="1"/>
  <line x1="45" y1="240" x2="45" y2="310" stroke="#666666" stroke-width="1"/>

  <!-- X axis labels -->
  <text x="80" y="325" fill="#888888" font-family="monospace" font-size="12">Mar 25</text>
  <text x="160" y="325" fill="#888888" font-family="monospace" font-size="12">Mar 26</text>
  <text x="240" y="325" fill="#888888" font-family="monospace" font-size="12">Mar 27</text>
  <text x="320" y="325" fill="#888888" font-family="monospace" font-size="12">Mar 28</text>
  <text x="400" y="325" fill="#888888" font-family="monospace" font-size="12">Mar 29</text>
  <text x="480" y="325" fill="#888888" font-family="monospace" font-size="12">Mar 30</text>

  <!-- Y axis labels -->
  <text x="30" y="310" fill="#888888" font-family="monospace" font-size="12">0</text>
  <text x="30" y="280" fill="#888888" font-family="monospace" font-size="12">25</text>
  <text x="30" y="250" fill="#888888" font-family="monospace" font-size="12">50</text>

  <!-- Bar graph -->
  <rect x="60" y="270" width="30" height="40" fill="#3498DB" rx="2" ry="2"/>
  <rect x="140" y="290" width="30" height="20" fill="#3498DB" rx="2" ry="2"/>
  <rect x="220" y="270" width="30" height="40" fill="#3498DB" rx="2" ry="2"/>
  <rect x="300" y="250" width="30" height="60" fill="#3498DB" rx="2" ry="2"/>
  <rect x="380" y="260" width="30" height="50" fill="#3498DB" rx="2" ry="2"/>
  <rect x="460" y="280" width="30" height="30" fill="#4A90E2" rx="2" ry="2"/>

  <!-- Help text at bottom -->
  <text x="30" y="370" fill="#888888" font-family="monospace" font-size="12">Tab: Switch View</text>
  <text x="170" y="370" fill="#888888" font-family="monospace" font-size="12">b: Back to Main Menu</text>
  <text x="350" y="370" fill="#888888" font-family="monospace" font-size="12">q: Quit</text>
</svg>
